<svg width="29" height="29" viewBox="0 0 29 29" fill="none" xmlns="http://www.w3.org/2000/svg">
<path d="M19.1593 22.0132C14.418 25.3289 7.82992 24.8775 3.59137 20.6566C-1.1535 15.9316 -1.1535 8.2701 3.59137 3.54381C8.33744 -1.18127 16.0322 -1.18127 20.777 3.54381C24.7878 7.53781 25.4086 13.6302 22.6396 18.2737L28.1367 23.7455C28.3606 23.9684 28.5383 24.2332 28.6595 24.5245C28.7808 24.8159 28.8432 25.1282 28.8432 25.4436C28.8432 25.7589 28.7808 26.0712 28.6595 26.3626C28.5383 26.6539 28.3606 26.9187 28.1367 27.1416L27.9269 27.3493C27.4748 27.7994 26.8616 28.0523 26.2223 28.0523C25.583 28.0523 24.9699 27.7994 24.5177 27.3493L19.1593 22.0132ZM12.1842 20.3805C14.3893 20.3805 16.5041 19.5082 18.0634 17.9555C19.6226 16.4027 20.4986 14.2967 20.4986 12.1008C20.4986 9.90492 19.6226 7.79894 18.0634 6.2462C16.5041 4.69345 14.3893 3.82113 12.1842 3.82113C9.9791 3.82113 7.86431 4.69345 6.30506 6.2462C4.74581 7.79894 3.86984 9.90492 3.86984 12.1008C3.86984 14.2967 4.74581 16.4027 6.30506 17.9555C7.86431 19.5082 9.9791 20.3805 12.1842 20.3805Z" fill="white"/>
</svg>
