<svg width="32" height="32" viewBox="0 0 32 32" fill="none" xmlns="http://www.w3.org/2000/svg">
<path d="M27.8242 12.0073H19.352V3.53515C19.352 2.59757 18.9796 1.69839 18.3166 1.03542C17.6537 0.372453 16.7545 0 15.8169 0C14.8793 0 13.9801 0.372453 13.3172 1.03542C12.6542 1.69839 12.2817 2.59757 12.2817 3.53515V12.0073H3.80957C2.87199 12.0073 1.97281 12.3798 1.30984 13.0428C0.646867 13.7057 0.274414 14.6049 0.274414 15.5425C0.274414 16.4801 0.646867 17.3792 1.30984 18.0422C1.97281 18.7052 2.87199 19.0776 3.80957 19.0776H12.2817V27.5498C12.2817 28.4874 12.6542 29.3866 13.3172 30.0495C13.9801 30.7125 14.8793 31.085 15.8169 31.085C16.7545 31.085 17.6537 30.7125 18.3166 30.0495C18.9796 29.3866 19.352 28.4874 19.352 27.5498V19.0776H27.8242C28.7618 19.0776 29.661 18.7052 30.324 18.0422C30.9869 17.3792 31.3594 16.4801 31.3594 15.5425C31.3594 14.6049 30.9869 13.7057 30.324 13.0428C29.661 12.3798 28.7618 12.0073 27.8242 12.0073Z" fill="white"/>
</svg>
